<?xml version="1.0" encoding="utf-8"?>
<!-- Generator: Adobe Illustrator 14.0.0, SVG Export Plug-In . SVG Version: 6.00 Build 43363)  -->
<!DOCTYPE svg PUBLIC "-//W3C//DTD SVG 1.1//EN" "http://www.w3.org/Graphics/SVG/1.1/DTD/svg11.dtd">
<svg version="1.1" id="Layer_1" xmlns="http://www.w3.org/2000/svg" xmlns:xlink="http://www.w3.org/1999/xlink" x="0px" y="0px"
	 width="32px" height="32px" viewBox="0 0 32 32" enable-background="new 0 0 32 32" xml:space="preserve">
<rect x="14" y="8" fill="#010101" width="4" height="16"/>
<rect x="8" y="14" fill="#010101" width="16" height="4"/>
<g>
	<path fill="#010101" d="M16,2c7.699,0,14,6.3,14,14c0,7.699-6.301,14-14,14C8.3,30,2,23.699,2,16C2,8.3,8.3,2,16,2 M16,0
		C7.2,0,0,7.2,0,16c0,8.801,7.2,16,16,16c8.801,0,16-7.199,16-16C32,7.2,24.801,0,16,0L16,0z"/>
</g>
</svg>
