<?xml version="1.0" encoding="utf-8"?>
<!-- Generator: Adobe Illustrator 14.0.0, SVG Export Plug-In . SVG Version: 6.00 Build 43363)  -->
<!DOCTYPE svg PUBLIC "-//W3C//DTD SVG 1.1//EN" "http://www.w3.org/Graphics/SVG/1.1/DTD/svg11.dtd">
<svg version="1.1" id="Layer_1" xmlns="http://www.w3.org/2000/svg" xmlns:xlink="http://www.w3.org/1999/xlink" x="0px" y="0px"
	 width="612px" height="792px" viewBox="0 0 612 792" enable-background="new 0 0 612 792" xml:space="preserve">
<g>
	<path d="M306,128.25c147.263,0,267.75,120.487,267.75,267.75S453.263,663.75,306,663.75S38.25,543.263,38.25,396
		S158.737,128.25,306,128.25 M306,90C137.7,90,0,227.7,0,396s137.7,306,306,306s306-137.7,306-306S474.3,90,306,90L306,90z"/>
</g>
<polyline fill="none" stroke="#6A0BC0" stroke-width="1.5" stroke-miterlimit="10" points="3532.388,5035.725 3572.55,5072.062 
	3652.875,4972.613 "/>
<polygon points="275.467,528.814 169.77,437.865 208.905,392.385 267.683,442.961 408.887,268.137 455.562,305.837 275.467,528.814 
	"/>
</svg>
