<?xml version="1.0" encoding="utf-8"?>
<!-- Generator: Adobe Illustrator 17.0.2, SVG Export Plug-In . SVG Version: 6.00 Build 0)  -->
<!DOCTYPE svg PUBLIC "-//W3C//DTD SVG 1.1//EN" "http://www.w3.org/Graphics/SVG/1.1/DTD/svg11.dtd">
<svg version="1.1" id="Layer_1" xmlns="http://www.w3.org/2000/svg" xmlns:xlink="http://www.w3.org/1999/xlink" x="0px" y="0px"
	 width="16.479px" height="16.479px" viewBox="6.76 8.76 16.479 16.479" enable-background="new 6.76 8.76 16.479 16.479"
	 xml:space="preserve">
<g>
	<polygon fill="#010101" points="16,13 14,13 14,16 11,16 11,18 14,18 14,21 16,21 16,18 19,18 19,16 16,16 	"/>
	<path fill="#010101" d="M15,8.76c-4.532,0-8.24,3.707-8.24,8.24c0,4.532,3.708,8.239,8.24,8.239s8.239-3.707,8.239-8.239
		C23.239,12.467,19.532,8.76,15,8.76z M15,24.21c-3.966,0-7.21-3.245-7.21-7.21c0-3.966,3.244-7.21,7.21-7.21
		c3.965,0,7.21,3.244,7.21,7.21C22.21,20.965,18.965,24.21,15,24.21z"/>
</g>
</svg>
