<?xml version="1.0" encoding="utf-8"?>
<!-- Generator: Adobe Illustrator 17.0.2, SVG Export Plug-In . SVG Version: 6.00 Build 0)  -->
<!DOCTYPE svg PUBLIC "-//W3C//DTD SVG 1.1//EN" "http://www.w3.org/Graphics/SVG/1.1/DTD/svg11.dtd">
<svg version="1.1" id="Layer_1" xmlns="http://www.w3.org/2000/svg" xmlns:xlink="http://www.w3.org/1999/xlink" x="0px" y="0px"
	 width="32px" height="32px" viewBox="0 0 32 32" enable-background="new 0 0 32 32" xml:space="preserve">
<path d="M6,6v20h20V6H6z M23.855,15.878h-2.206v8.125h-3.342v-8.071h-1.819v-2.803h1.764c0-0.829,0.008-1.566,0-2.335
	C18.252,8.585,19.948,8,21.473,8C22.498,8,24,8,24,8v0h0.003L24,10.715c-0.216,0.001-1.012,0-1.446,0
	c-0.053,0-0.963-0.05-0.963,0.822c0.007,0.356,0,1.583,0,1.583h2.464L23.855,15.878z"/>
</svg>
