<?xml version="1.0" encoding="iso-8859-1"?>
<!-- Generator: Adobe Illustrator 17.0.2, SVG Export Plug-In . SVG Version: 6.00 Build 0)  -->
<!DOCTYPE svg PUBLIC "-//W3C//DTD SVG 1.1//EN" "http://www.w3.org/Graphics/SVG/1.1/DTD/svg11.dtd">
<svg version="1.1" id="Layer_1" xmlns="http://www.w3.org/2000/svg" xmlns:xlink="http://www.w3.org/1999/xlink" x="0px" y="0px"
	 width="16px" height="16px" viewBox="0 0 16 16" style="enable-background:new 0 0 16 16;" xml:space="preserve">
<g>
	<path d="M8,16L1.437,9.317c-0.703-0.806-1.072-1.791-1.072-2.81c0-2.329,1.895-4.224,4.225-4.224c1.127,0,2.187,0.439,2.985,1.235
		L7.992,3.94l0.44-0.428c0.789-0.789,1.849-1.228,2.978-1.228c2.329,0,4.224,1.895,4.224,4.224c0,1.019-0.369,2.004-1.038,2.774
		L8,16z M4.591,3.91c-1.433,0-2.599,1.165-2.599,2.597c0,0.626,0.227,1.233,0.639,1.706L8,13.678l5.401-5.501
		c0.379-0.438,0.606-1.044,0.606-1.67c0-1.432-1.165-2.597-2.598-2.597c-0.694,0-1.346,0.27-1.835,0.76L8,6.231L6.423,4.666
		C5.935,4.18,5.284,3.91,4.591,3.91z"/>
</g>
</svg>
