<?xml version="1.0" encoding="utf-8"?>
<!-- Generator: Adobe Illustrator 17.0.2, SVG Export Plug-In . SVG Version: 6.00 Build 0)  -->
<!DOCTYPE svg PUBLIC "-//W3C//DTD SVG 1.1//EN" "http://www.w3.org/Graphics/SVG/1.1/DTD/svg11.dtd">
<svg version="1.1" id="Layer_1" xmlns="http://www.w3.org/2000/svg" xmlns:xlink="http://www.w3.org/1999/xlink" x="0px" y="0px"
	 width="612px" height="612px" viewBox="-0.5 0.5 612 612" enable-background="new -0.5 0.5 612 612" xml:space="preserve">
<path d="M78.551,0.5h454.898c43.199,0,78.051,34.845,78.051,78.051v454.898c0,43.206-34.846,79.051-78.051,79.051H78.551
	C35.345,612.5-0.5,576.655-0.5,533.449V78.551C-0.5,35.345,35.345,0.5,78.551,0.5L78.551,0.5z M445.817,67.5
	c-15.156,0-27.317,12.892-27.317,28.048v65.949c0,15.156,12.161,28.003,27.317,28.003h69.172c15.156,0,27.511-12.847,27.511-28.003
	V95.548c0-15.156-12.361-28.048-27.511-28.048H445.817L445.817,67.5z M542.828,258.5H488.96c5.095,17,7.848,34.42,7.848,52.663
	c0,101.796-85.171,184.391-190.228,184.391s-190.222-82.633-190.222-184.429c0-18.249,2.752-35.625,7.848-52.625H67.5v258.826
	c0,13.383,11.448,24.174,24.831,24.174h426.173c13.383,0,23.996-10.797,23.996-24.174V258.5H542.828z M306.58,185.579
	c-67.883,0-122.91,53.322-122.91,119.091c0,65.775,55.033,119.097,122.91,119.097c67.883,0,122.91-53.322,122.91-119.097
	C429.495,238.901,374.463,185.579,306.58,185.579z"/>
</svg>
