<?xml version="1.0" encoding="utf-8"?>
<!-- Generator: Adobe Illustrator 17.0.2, SVG Export Plug-In . SVG Version: 6.00 Build 0)  -->
<!DOCTYPE svg PUBLIC "-//W3C//DTD SVG 1.1//EN" "http://www.w3.org/Graphics/SVG/1.1/DTD/svg11.dtd">
<svg version="1.1" id="Layer_1" xmlns="http://www.w3.org/2000/svg" xmlns:xlink="http://www.w3.org/1999/xlink" x="0px" y="0px"
	 width="28.263px" height="28.499px" viewBox="0 0 28.263 28.499" enable-background="new 0 0 28.263 28.499" xml:space="preserve">
<g>
	<path fill="#010101" d="M18.566,2.957c3.725,0,6.74,3.017,6.74,6.742s-3.016,6.742-6.74,6.742s-6.742-3.016-6.742-6.742
		S14.842,2.957,18.566,2.957 M18.566,0c-5.323,0-9.698,4.318-9.698,9.699c0,5.321,4.316,9.699,9.698,9.699
		c5.381,0,9.697-4.317,9.697-9.699C28.264,4.318,23.947,0,18.566,0L18.566,0z"/>
	<rect x="3.74" y="15.972" transform="matrix(0.7071 0.7072 -0.7072 0.7071 17.5795 2.1338)" width="4.949" height="12.627"/>
</g>
</svg>
