<?xml version="1.0" encoding="utf-8"?>
<!-- Generator: Adobe Illustrator 14.0.0, SVG Export Plug-In  -->
<!DOCTYPE svg PUBLIC "-//W3C//DTD SVG 1.1//EN" "http://www.w3.org/Graphics/SVG/1.1/DTD/svg11.dtd" [
	<!ENTITY ns_flows "http://ns.adobe.com/Flows/1.0/">
]>
<svg version="1.1"
	 xmlns="http://www.w3.org/2000/svg" xmlns:xlink="http://www.w3.org/1999/xlink" xmlns:a="http://ns.adobe.com/AdobeSVGViewerExtensions/3.0/"
	 x="0px" y="0px" width="32px" height="32px" viewBox="-0.568 -1.213 32 32" enable-background="new -0.568 -1.213 32 32"
	 xml:space="preserve">
<defs>
</defs>
<path fill="#010101" d="M19.286,2.957c3.725,0,6.74,3.017,6.74,6.742s-3.016,6.742-6.74,6.742s-6.742-3.016-6.742-6.742
	S15.561,2.957,19.286,2.957 M19.286,0c-5.323,0-9.698,4.318-9.698,9.699c0,5.321,4.316,9.699,9.698,9.699
	c5.381,0,9.697-4.317,9.697-9.699C28.983,4.318,24.667,0,19.286,0L19.286,0z"/>
<rect x="3.415" y="16.287" transform="matrix(-0.7071 -0.7071 0.7071 -0.7071 -4.0358 43.5276)" width="7.163" height="12.626"/>
</svg>
