<svg xmlns="http://www.w3.org/2000/svg" viewBox="6.366 7.345 19.269 17.31"><path d="M16 24.655L7.72 16.22c-.888-1.016-1.354-2.26-1.354-3.545 0-2.94 2.392-5.33 5.332-5.33 1.422 0 2.76.554 3.767 1.558l.526.532.556-.54c.996-.996 2.334-1.55 3.758-1.55 2.94 0 5.33 2.39 5.33 5.33 0 1.286-.464 2.53-1.31 3.5L16 24.656zM11.7 9.398c-1.808 0-3.28 1.47-3.28 3.277 0 .79.288 1.556.808 2.153L16 21.724l6.817-6.942c.478-.552.765-1.317.765-2.108 0-1.807-1.47-3.277-3.278-3.277-.876 0-1.698.34-2.316.958L16 12.327l-1.99-1.975c-.615-.614-1.438-.954-2.312-.954z"/></svg>