<svg xmlns="http://www.w3.org/2000/svg" viewBox="8.481 8.481 15.039 15.039"><path d="M16 8.48c-4.152 0-7.52 3.368-7.52 7.52 0 4.153 3.368 7.52 7.52 7.52 4.153 0 7.52-3.367 7.52-7.52S20.153 8.48 16 8.48zm-1.73 12.697c-.74 0-1.184-.407-1.184-1.087 0-.66.36-1.67.663-2.4l1.1-2.773c.032-.082.025-.127.02-.134-.213.01-.615.486-.882.8-.308.363-.493.583-.712.583-.224 0-.427-.203-.427-.426 0-.294.347-.698.908-1.253l.055-.054c.54-.514 1.41-1.12 2.52-1.12.47 0 .844.168 1.058.476.277.397.273.99-.013 1.76l-1.174 3.167c-.086.212-.216.532-.216.712.15 0 .62-.53.846-.785.352-.396.502-.556.683-.556.194 0 .41.187.41.457 0 .622-1.986 2.63-3.657 2.63zm2.71-7.99c-.772 0-1.292-.52-1.292-1.294 0-.803.692-1.482 1.513-1.482.772 0 1.31.532 1.31 1.294 0 .83-.67 1.482-1.53 1.482z"/></svg>