<svg xmlns="http://www.w3.org/2000/svg" viewBox="-0.5 0.5 612 612"><path d="M78.55.5h454.9c43.198 0 78.05 34.845 78.05 78.05v454.9c0 43.205-34.846 79.05-78.05 79.05H78.55C35.346 612.5-.5 576.655-.5 533.45V78.55C-.5 35.346 35.345.5 78.55.5zm367.267 67c-15.156 0-27.317 12.892-27.317 28.048v65.95c0 15.155 12.16 28.002 27.317 28.002h69.172c15.155 0 27.51-12.847 27.51-28.003v-65.95c0-15.155-12.36-28.047-27.51-28.047h-69.173zm97.01 191H488.96c5.095 17 7.848 34.42 7.848 52.663 0 101.796-85.17 184.39-190.228 184.39s-190.222-82.632-190.222-184.428c0-18.25 2.752-35.625 7.848-52.625H67.5v258.826c0 13.383 11.448 24.174 24.83 24.174h426.174c13.383 0 23.996-10.797 23.996-24.174V258.5h.328zM306.58 185.58c-67.883 0-122.91 53.32-122.91 119.09 0 65.775 55.033 119.097 122.91 119.097 67.883 0 122.91-53.322 122.91-119.097.005-65.77-55.027-119.09-122.91-119.09z"/></svg>