<svg xmlns="http://www.w3.org/2000/svg" viewBox="6.943 6.957 18.113 18.086"><path fill="none" d="M20.973 9.105c-.518 0-1.005.2-1.37.567l-2.978 2.966c-.368.367-.57.853-.57 1.37 0 .18.03.353.077.52l.008.005 1.272-1.27c.368-.365.963-.364 1.33.003.366.368.365.963-.003 1.33l-1.267 1.262c.655.172 1.395.02 1.89-.472l2.977-2.967c.757-.756.76-1.986.004-2.743-.366-.368-.853-.572-1.37-.572zM15.842 17.484l-1.53 1.525c-.184.182-.424.273-.665.273-.24 0-.48-.092-.664-.276-.366-.367-.365-.962.002-1.33l1.53-1.523-.005-.008c-.168-.047-.34-.08-.52-.08-.517 0-1.005.2-1.372.566l-2.958 2.95c-.757.754-.76 1.986-.004 2.745.365.365.85.567 1.37.568.517 0 1.004-.2 1.372-.565l2.96-2.95c.512-.512.67-1.24.49-1.892-.003 0-.004-.002-.006-.004z"/><path d="M23.866 8.16c-.77-.774-1.797-1.202-2.89-1.203-1.092-.002-2.12.423-2.892 1.194l-2.975 2.966c-.755.75-1.177 1.745-1.2 2.805-1.06.022-2.056.44-2.81 1.19l-2.958 2.95c-1.595 1.59-1.6 4.185-.008 5.783.77.772 1.796 1.198 2.887 1.2 1.092 0 2.12-.42 2.893-1.19l2.96-2.952c.777-.774 1.173-1.786 1.195-2.804 1.06-.02 2.057-.438 2.812-1.19l2.977-2.966c1.595-1.592 1.6-4.185.01-5.78zm-8.51 11.22L12.4 22.33c-.367.366-.854.566-1.373.565-.518 0-1.004-.203-1.37-.568-.754-.758-.752-1.99.005-2.746l2.96-2.948c.366-.366.854-.567 1.372-.566.18 0 .35.033.52.08 0 .003 0 .005.003.008l-1.53 1.524c-.367.367-.368.962 0 1.33.182.183.423.275.663.275.24 0 .48-.09.665-.274l1.53-1.526c.002 0 .003.002.005.003.18.654.022 1.38-.49 1.893zm6.984-6.96l-2.977 2.966c-.495.493-1.234.645-1.89.472l1.266-1.263c.367-.366.368-.96 0-1.33-.365-.366-.96-.367-1.328 0l-1.272 1.268c-.003 0-.005-.003-.008-.004-.046-.17-.078-.342-.078-.52 0-.52.204-1.005.57-1.372l2.978-2.966c.366-.366.853-.568 1.37-.567.52 0 1.006.204 1.372.572.755.757.753 1.987-.004 2.742z"/></svg>