<svg xmlns="http://www.w3.org/2000/svg" viewBox="0 0 96.405 33.044"><path d="M2.384 2.385H94.02V30.66H55.527v-5.11h-2.384v5.11H2.384V2.385zM0 33.045h96.405V0H0v33.044z"/><path d="M19.624 10.546h-2.47L12.862 21.59h2.47l1.126-3.06h3.88l1.113 3.06h2.47l-4.296-11.044zm-2.503 5.96l1.27-3.462 1.252 3.46h-2.52zM41.064 10.546v2.193h3.988v8.85h2.554v-8.85h4.088v-2.194M80.724 10.546l-2.795 4.71-2.78-4.71h-2.703l4.327 6.99v4.055H79.1v-4.053l4.326-6.99M67.73 15.774c-.72-.525-1.704-.766-2.573-.98-.18-.043-.357-.086-.528-.13l-.107-.03c-.71-.176-1.678-.42-1.678-1.266 0-.904 1.053-1.145 1.675-1.145.705 0 1.59.21 1.808 1.22l.007.033h2.19v-.043c-.075-2.04-1.505-3.208-3.923-3.208-1.802 0-3.903.84-3.903 3.208 0 2.466 2.192 2.993 4.128 3.46.178.042.354.084.523.127.987.258 1.488.715 1.488 1.36 0 1.39-1.82 1.46-2.187 1.46-1.278 0-1.974-.48-2.187-1.5l-.006-.034h-2.225l.003.042c.016.876.122 1.41.686 2.072 1.07 1.246 2.765 1.433 3.68 1.433 2.112 0 4.385-1.097 4.385-3.506 0-1.023-.48-2.01-1.256-2.573M35.718 16.894c.844-.617 1.368-1.706 1.368-2.845 0-1.232-.634-2.375-1.654-2.982-.865-.522-1.74-.522-2.584-.522h-4.982V21.59h2.34v-5.458l4.346 5.46h2.835l-3.308-4.053c.592-.104 1.085-.243 1.638-.646m-5.51-1.263V12.63h2.63c.522 0 .985.02 1.36.29.352.26.562.71.562 1.21 0 .997-.71 1.502-2.114 1.502h-2.44z"/></svg>