<svg xmlns="http://www.w3.org/2000/svg" viewBox="0 0 129 44"><path d="M4 4h121v36H75v-6h-4v6H4V4zM0 44h129V0H0v44z"/><path d="M26.26 14h-3.305L17.21 29h3.303l1.507-4.206h5.193L28.7 29h3.306L26.26 14zm-3.35 8l1.697-4.546L26.283 22H22.91zM55 14v3h5.284v12h3.418V17H69v-3M108.017 14l-3.74 6.414L100.56 14H96.94l5.79 9.466V29h3.112v-5.534l5.79-9.466M90.63 21.107c-.963-.703-2.28-1.025-3.443-1.31-.242-.06-.478-.116-.707-.177l-.142-.037c-.95-.237-2.245-.565-2.245-1.695 0-1.21 1.41-1.532 2.24-1.532.944 0 2.13.282 2.42 1.63l.01.014h2.93v-.025c-.1-2.728-2.014-4.293-5.25-4.293-2.41 0-5.222 1.125-5.222 4.293 0 3.3 2.935 4.005 5.526 4.63.238.057.474.113.7.17 1.32.345 1.99.957 1.99 1.82 0 1.86-2.437 1.952-2.926 1.952-1.71 0-2.643-.64-2.928-2.007l-.008-.044h-2.977l.004.056c.022 1.172.164 1.885.92 2.773 1.43 1.667 3.698 1.918 4.923 1.918 2.825 0 5.866-1.468 5.866-4.69 0-1.372-.644-2.69-1.68-3.446M47.794 22.606c1.13-.826 1.83-2.283 1.83-3.807 0-1.648-.847-3.178-2.212-3.99-1.158-.698-2.327-.81-3.458-.81h-6.666v15h3.133v-7.414L46.235 29h3.794l-4.426-5.53c.793-.14 1.452-.325 2.192-.864M40.42 21.01v-4.018h3.52c.7 0 1.318.028 1.82.39.47.345.752.95.752 1.62 0 1.332-.95 2.007-2.83 2.007H40.42z"/></svg>