<svg xmlns="http://www.w3.org/2000/svg" viewBox="6 5.999 19.999 20.001"><path d="M16 6C10.476 6 6 10.476 6 16c0 4.095 2.46 7.613 5.985 9.16-.028-.7-.005-1.538.172-2.297.194-.812 1.286-5.45 1.286-5.45s-.32-.638-.32-1.58c0-1.484.86-2.59 1.933-2.59.91 0 1.35.683 1.35 1.502 0 .915-.584 2.282-.886 3.546-.248 1.064.536 1.928 1.58 1.928 1.893 0 3.172-2.434 3.172-5.317 0-2.19-1.48-3.83-4.16-3.83-3.035 0-4.926 2.26-4.926 4.788 0 .87.258 1.485.66 1.96.186.22.212.308.143.557-.05.185-.158.628-.205.803-.066.253-.27.345-.5.25-1.398-.57-2.05-2.1-2.05-3.82 0-2.84 2.397-6.247 7.147-6.247 3.816 0 6.33 2.764 6.33 5.732 0 3.92-2.18 6.852-5.394 6.852-1.08 0-2.096-.584-2.445-1.247 0 0-.577 2.303-.703 2.75-.213.77-.626 1.54-1.005 2.142.898.265 1.85.41 2.834.41 5.522 0 10-4.48 10-10.002 0-5.52-4.477-10-10-10z"/></svg>