<svg xmlns="http://www.w3.org/2000/svg" viewBox="6.086 7.941 19.829 16.117"><path d="M25.915 9.85c-.727.326-1.515.544-2.336.642.84-.504 1.483-1.3 1.788-2.252-.79.47-1.657.806-2.584.987-.74-.79-1.798-1.286-2.97-1.286-2.244 0-4.067 1.823-4.067 4.073 0 .32.035.626.102.927-3.38-.17-6.377-1.79-8.385-4.253-.35.602-.552 1.3-.552 2.046 0 1.413.717 2.657 1.812 3.386-.666-.02-1.293-.204-1.842-.51v.052c0 1.97 1.4 3.616 3.263 3.988-.344.095-.703.143-1.07.143-.263 0-.52-.024-.767-.07.52 1.617 2.02 2.79 3.796 2.823-1.388 1.092-3.143 1.743-5.05 1.743-.33 0-.655-.02-.97-.06 1.8 1.154 3.94 1.828 6.236 1.828 7.484 0 11.575-6.2 11.575-11.575 0-.177 0-.352-.015-.525.797-.576 1.49-1.292 2.033-2.107z"/></svg>