<?xml version="1.0" standalone="no"?>
<!DOCTYPE svg PUBLIC "-//W3C//DTD SVG 1.1//EN" "http://www.w3.org/Graphics/SVG/1.1/DTD/svg11.dtd" >
<svg xmlns="http://www.w3.org/2000/svg">
<metadata>Generated by IcoMoon</metadata>
<defs>
<font id="artsy-pe-icons" horiz-adv-x="512">
<font-face units-per-em="512" ascent="480" descent="-32" />
<missing-glyph horiz-adv-x="512" />
<glyph unicode="&#x20;" d="" horiz-adv-x="256" />
<glyph unicode="&#xe599;" d="M4929.536-18261.696c0 43.072-32.864 78.080-90.080 78.736-0.544 0-14.352 0.032-14.928 0.032-0.912 0-14.096-0.032-15.008-0.032-56.736-1.088-90-35.904-90-78.736v-14.704h210v14.704zM4704.528-18296.4h240v-40h-240v40zM4836.992-18133.504c2.496 2.096 2.528 4.080 2.528 4.080v8.048h-30.016v-8.048c0 0 0-1.984 2.48-4.080 2.544-2.096 6.272-5.84 6.272-10.4 0-4.064-2.496-7.28-4.848-9.024-3.472-2.592-3.904-6.112-3.904-6.112v-7.36h30.016v7.36c0 0-0.464 3.52-3.936 6.112-2.352 1.744-4.864 4.976-4.864 9.024 0.016 4.56 3.728 8.304 6.272 10.4zM400 160.944c0 55.904-53.92 110.336-128.16 111.184-0.704 0-18.624 0.032-19.36 0.032-1.168 0-18.288-0.032-19.472-0.032-73.616-1.424-121.008-53.472-121.008-109.040v-19.088h288v16.944zM96 115.904h320v-51.904h-320v51.904zM272.176 339.376c3.248 2.72 3.28 5.296 3.28 5.296v10.432h-38.912v-10.448c0 0 0-2.576 3.232-5.296 3.312-2.72 8.128-7.584 8.128-13.504 0-5.264-3.248-9.456-6.288-11.728-4.512-3.36-5.072-7.92-5.072-7.92v-9.552h38.928v9.552c0 0-0.608 4.56-5.104 7.92-3.056 2.272-6.304 6.448-6.304 11.728-0.016 5.92 4.816 10.8 8.112 13.52z" />
<glyph unicode="&#xe600;" d="M4929.536-18261.696c0 43.072-32.864 78.080-90.080 78.736-0.544 0-14.352 0.032-14.928 0.032-0.912 0-14.096-0.032-15.008-0.032-56.736-1.088-90-35.904-90-78.736v-14.704h210v14.704zM4704.528-18296.4h240v-40h-240v40zM4836.992-18133.504c2.496 2.096 2.528 4.080 2.528 4.080v8.048h-30.016v-8.048c0 0 0-1.984 2.48-4.080 2.544-2.096 6.272-5.84 6.272-10.4 0-4.064-2.496-7.28-4.848-9.024-3.472-2.592-3.904-6.112-3.904-6.112v-7.36h30.016v7.36c0 0-0.464 3.52-3.936 6.112-2.352 1.744-4.864 4.976-4.864 9.024 0.016 4.56 3.728 8.304 6.272 10.4zM356.784 151.44c-8.24-10.176-17.744-19.216-28.192-27.104l58.976-59.936 27.872 27.424-58.656 59.616zM227.264 122.656c-72.080 0-130.72 58.64-130.72 130.72s58.64 130.72 130.72 130.72 130.72-58.64 130.72-130.72-58.624-130.72-130.72-130.72zM227.264 349.792c-53.168 0-96.416-43.248-96.416-96.416s43.248-96.416 96.416-96.416 96.416 43.248 96.416 96.416c0.016 53.168-43.248 96.416-96.416 96.416z" />
<glyph unicode="&#xe601;" d="M4929.536-18261.696c0 43.072-32.864 78.080-90.080 78.736-0.544 0-14.352 0.032-14.928 0.032-0.912 0-14.096-0.032-15.008-0.032-56.736-1.088-90-35.904-90-78.736v-14.704h210v14.704zM4704.528-18296.4h240v-40h-240v40zM4836.992-18133.504c2.496 2.096 2.528 4.080 2.528 4.080v8.048h-30.016v-8.048c0 0 0-1.984 2.48-4.080 2.544-2.096 6.272-5.84 6.272-10.4 0-4.064-2.496-7.28-4.848-9.024-3.472-2.592-3.904-6.112-3.904-6.112v-7.36h30.016v7.36c0 0-0.464 3.52-3.936 6.112-2.352 1.744-4.864 4.976-4.864 9.024 0.016 4.56 3.728 8.304 6.272 10.4zM233.2 242.48v74.048l-136.128-92.544 136.128-92.512v74.656h145.392v-72.688h36.336v109.040z" />
<glyph unicode="&#xe602;" d="M426.016 341.984l-52.032 52.032-117.984-117.984-117.984 117.984-52.032-52.032 117.984-117.984-117.984-117.984 52.032-52.032 117.984 117.952 117.984-117.952 52.032 52.032-117.952 117.984z" />
<glyph unicode="&#xe603;" d="M4929.536-18261.696c0 43.072-32.864 78.080-90.080 78.736-0.544 0-14.352 0.032-14.928 0.032-0.912 0-14.096-0.032-15.008-0.032-56.736-1.088-90-35.904-90-78.736v-14.704h210v14.704zM4704.528-18296.4h240v-40h-240v40zM4836.992-18133.504c2.496 2.096 2.528 4.080 2.528 4.080v8.048h-30.016v-8.048c0 0 0-1.984 2.48-4.080 2.544-2.096 6.272-5.84 6.272-10.4 0-4.064-2.496-7.28-4.848-9.024-3.472-2.592-3.904-6.112-3.904-6.112v-7.36h30.016v7.36c0 0-0.464 3.52-3.936 6.112-2.352 1.744-4.864 4.976-4.864 9.024 0.016 4.56 3.728 8.304 6.272 10.4zM390.88 280.56c-0.576 0.496-57.344 49.664-134.88 49.664-80.64 0-134.128-48.976-134.672-49.472l-15.168 16.304c2.432 2.256 60.528 55.424 149.84 55.424 86.224 0 147.088-52.992 149.616-55.248l-14.736-16.672zM256 277.488c-95.072 0-157.344-85.68-157.344-85.68s63.92-86.304 157.344-86.304c95.072 0 157.344 86.304 157.344 86.304s-65.552 85.68-157.344 85.68zM256 160c-17.68 0-32 14.32-32 32s14.32 32 32 32 32-14.32 32-32c0-17.68-14.32-32-32-32zM124.816 191.92c12.576 13.776 36.496 36.448 68.512 51.2-11.632-14.096-18.88-31.92-18.88-51.6 0-19.328 6.992-36.848 18.224-50.832-31.328 14.992-55.2 37.568-67.856 51.232zM318.8 140.048c11.552 14.080 18.752 31.84 18.752 51.472 0 19.12-6.864 36.496-17.904 50.4 30.784-14.88 54.624-36.96 67.408-50.448-12.56-13.856-36.4-36.592-68.256-51.424z" />
<glyph unicode="&#xe604;" d="M46.545 433.454h1408v-418.909h-581.818v69.818h-46.545v-69.818h-779.636v418.909zM0-32h1501.091v512h-1501.091v-512zM305.56 317.091h-38.447l-66.863-174.546h38.447l17.536 48.942h60.428l17.315-48.942h38.458l-66.874 174.546zM266.589 224l19.747 52.899 19.502-52.899h-39.25zM640 317.091v-34.909h61.486v-139.637h39.773l0.011 139.637h61.638v34.909zM1256.925 317.091l-43.52-74.635-43.264 74.635h-42.089l67.374-110.15v-64.395h36.213v64.395l67.363 110.15zM1054.592 234.392c-11.194 8.18-26.52 11.928-40.053 15.244-2.816 0.686-5.562 1.35-8.227 2.059l-1.653 0.43c-11.043 2.758-26.124 6.575-26.124 19.724 0 14.080 16.395 17.827 26.077 17.827 10.973 0 24.774-3.281 28.148-18.979l0.117-0.151h34.094l-0.012 0.291c-1.152 31.744-23.424 49.955-61.067 49.955-28.056 0-60.777-13.091-60.777-49.955 0-38.4 34.141-46.603 64.291-53.865 2.769-0.675 5.515-1.327 8.145-1.99 15.348-4.014 23.156-11.136 23.156-21.178 0-21.632-28.358-22.714-34.048-22.714-19.91 0-30.755 7.447-34.072 23.354l-0.093 0.512h-34.641l0.047-0.651c0.245-13.638 1.896-21.935 10.682-32.267 16.64-19.398 43.043-22.319 57.298-22.319 32.873 0 68.259 17.082 68.259 54.586 0 15.954-7.482 31.302-19.549 40.088zM556.149 216.949c13.138 9.612 21.306 26.566 21.306 44.3 0 19.165-9.867 36.968-25.751 46.417-13.475 8.122-27.078 9.425-40.238 9.425h-77.568v-174.546h36.457v86.272l67.642-86.272h44.149l-51.503 64.361c9.227 1.606 16.896 3.77 25.507 10.042zM470.342 235.52v46.755l40.949 0.012c8.146 0 15.349-0.338 21.178-4.55 5.492-4.014 8.762-11.054 8.762-18.839 0-15.512-11.066-23.366-32.919-23.366l-37.969-0.012z" horiz-adv-x="1501" />
<glyph unicode="&#xe605;" d="M4929.536-18261.696c0 43.072-32.864 78.080-90.080 78.736-0.544 0-14.352 0.032-14.928 0.032-0.912 0-14.096-0.032-15.008-0.032-56.736-1.088-90-35.904-90-78.736v-14.704h210v14.704zM4704.528-18296.4h240v-40h-240v40zM4836.992-18133.504c2.496 2.096 2.528 4.080 2.528 4.080v8.048h-30.016v-8.048c0 0 0-1.984 2.48-4.080 2.544-2.096 6.272-5.84 6.272-10.4 0-4.064-2.496-7.28-4.848-9.024-3.472-2.592-3.904-6.112-3.904-6.112v-7.36h30.016v7.36c0 0-0.464 3.52-3.936 6.112-2.352 1.744-4.864 4.976-4.864 9.024 0.016 4.56 3.728 8.304 6.272 10.4zM206.704 194.528c-2.752 8.704-4.288 17.952-4.288 27.552 0 36.704 21.536 68.368 52.576 83.312-10.48 7.968-23.392 12.88-37.536 12.88-34.416 0-62.416-28-62.416-62.416 0.016-30.736 22.384-56.192 51.664-61.328zM294.928 284.512c-34.416 0-62.416-28-62.416-62.416s28-62.416 62.416-62.416 62.416 28 62.416 62.416-28 62.416-62.416 62.416zM160.864 182.848l-59.008-34.192-5.84-72.912h48.816l5.952 57.376 53.888 31.216c-16.368 2.288-31.344 8.832-43.808 18.512zM173.856 64l5.264 50.784 59.2 34.304c15.664-12.176 35.28-19.504 56.608-19.504s40.928 7.328 56.592 19.504l59.2-34.304 5.264-50.784h-242.128z" />
<glyph unicode="&#xe606;" d="M0-32h512v512h-512v-512zM464 16h-80v80h-48v-80h-288v416h416v-416zM193.728 384h-39.84l-73.728-185.6h38.128l19.936 51.2h71.488l19.616-51.2h38.176l-73.776 185.6zM149.312 281.6l24.512 66.064 24.192-66.064h-48.704z" />
<glyph unicode="&#xe607;" d="M4929.536-18261.696c0 43.072-32.864 78.080-90.080 78.736-0.544 0-14.352 0.032-14.928 0.032-0.912 0-14.096-0.032-15.008-0.032-56.736-1.088-90-35.904-90-78.736v-14.704h210v14.704zM4704.528-18296.4h240v-40h-240v40zM4836.992-18133.504c2.496 2.096 2.528 4.080 2.528 4.080v8.048h-30.016v-8.048c0 0 0-1.984 2.48-4.080 2.544-2.096 6.272-5.84 6.272-10.4 0-4.064-2.496-7.28-4.848-9.024-3.472-2.592-3.904-6.112-3.904-6.112v-7.36h30.016v7.36c0 0-0.464 3.52-3.936 6.112-2.352 1.744-4.864 4.976-4.864 9.024 0.016 4.56 3.728 8.304 6.272 10.4zM96 284.128h71.296v-220.128h-71.296v220.128zM220.608 361.904h71.296v-297.904h-71.296v297.904zM344.704 212.448h71.296v-148.448h-71.296v148.448z" />
<glyph unicode="&#xe608;" d="M4929.536-18261.696c0 43.072-32.864 78.080-90.080 78.736-0.544 0-14.352 0.032-14.928 0.032-0.912 0-14.096-0.032-15.008-0.032-56.736-1.088-90-35.904-90-78.736v-14.704h210v14.704zM4704.528-18296.4h240v-40h-240v40zM4836.992-18133.504c2.496 2.096 2.528 4.080 2.528 4.080v8.048h-30.016v-8.048c0 0 0-1.984 2.48-4.080 2.544-2.096 6.272-5.84 6.272-10.4 0-4.064-2.496-7.28-4.848-9.024-3.472-2.592-3.904-6.112-3.904-6.112v-7.36h30.016v7.36c0 0-0.464 3.52-3.936 6.112-2.352 1.744-4.864 4.976-4.864 9.024 0.016 4.56 3.728 8.304 6.272 10.4zM416.096 64h-226.016v26.944h199.088v127.040h26.928zM204.16 325.44l29.776 36.272 29.792-36.272h26.128l-55.92 68.128-55.92-68.128zM110.816 299.952h246.24v-174.192h-246.24v174.192z" />
<glyph unicode="&#xe609;" d="M4929.536-18261.696c0 43.072-32.864 78.080-90.080 78.736-0.544 0-14.352 0.032-14.928 0.032-0.912 0-14.096-0.032-15.008-0.032-56.736-1.088-90-35.904-90-78.736v-14.704h210v14.704zM4704.528-18296.4h240v-40h-240v40zM4836.992-18133.504c2.496 2.096 2.528 4.080 2.528 4.080v8.048h-30.016v-8.048c0 0 0-1.984 2.48-4.080 2.544-2.096 6.272-5.84 6.272-10.4 0-4.064-2.496-7.28-4.848-9.024-3.472-2.592-3.904-6.112-3.904-6.112v-7.36h30.016v7.36c0 0-0.464 3.52-3.936 6.112-2.352 1.744-4.864 4.976-4.864 9.024 0.016 4.56 3.728 8.304 6.272 10.4zM415.008 194.208v59.616h-47.088c-2.64 9.952-6.528 19.36-11.568 28.064l33.712 33.712-42.16 42.16-33.632-33.632c-8.816 5.152-18.368 9.12-28.464 11.808v47.072h-59.632v-47.088c-9.824-2.608-19.136-6.432-27.76-11.392l-33.216 33.216-42.16-42.16 33.024-33.024c-5.232-8.896-9.28-18.544-11.984-28.752h-47.088v-59.616h47.072c2.688-10.112 6.672-19.648 11.824-28.48l-32.832-32.832 42.16-42.16 32.928 32.928c8.704-5.024 18.112-8.928 28.064-11.568v-47.088h59.632v47.072c10.208 2.72 19.856 6.752 28.752 11.984l33.344-33.344 42.16 42.16-33.536 33.536c4.944 8.624 8.768 17.936 11.392 27.776l47.056 0.032zM256.016 174.32c-27.408 0-49.696 22.288-49.696 49.68 0 27.408 22.288 49.696 49.696 49.696 27.392 0 49.68-22.288 49.68-49.696-0.016-27.408-22.288-49.68-49.68-49.68z" />
<glyph unicode="&#xe60a;" d="M4929.536-18261.696c0 43.072-32.864 78.080-90.080 78.736-0.544 0-14.352 0.032-14.928 0.032-0.912 0-14.096-0.032-15.008-0.032-56.736-1.088-90-35.904-90-78.736v-14.704h210v14.704zM4704.528-18296.4h240v-40h-240v40zM4836.992-18133.504c2.496 2.096 2.528 4.080 2.528 4.080v8.048h-30.016v-8.048c0 0 0-1.984 2.48-4.080 2.544-2.096 6.272-5.84 6.272-10.4 0-4.064-2.496-7.28-4.848-9.024-3.472-2.592-3.904-6.112-3.904-6.112v-7.36h30.016v7.36c0 0-0.464 3.52-3.936 6.112-2.352 1.744-4.864 4.976-4.864 9.024 0.016 4.56 3.728 8.304 6.272 10.4zM96 334.848v-221.696h320v221.696h-320zM196.72 145.552h-60.128v156.912h60.128v-156.912zM310.656 210h-78.592v28h78.592v-28zM364.032 271.712h-131.984v28h131.984v-28z" />
<glyph unicode="&#xe60b;" d="M136 104l64 16-48 48zM328 344l-144.32-144 48.32-48 144 144z" />
<glyph unicode="&#xe60c;" d="M448.672 382.976l-31.264 31.664-161.216-159.184-159.168 161.216-31.664-31.28 159.168-161.2-161.2-159.168 31.28-31.664 161.2 159.168 159.168-161.2 31.648 31.264-159.152 161.216z" />
<glyph unicode="&#xe60d;" d="M4929.536-18261.696c0 43.072-32.864 78.080-90.080 78.736-0.544 0-14.352 0.032-14.928 0.032-0.912 0-14.096-0.032-15.008-0.032-56.736-1.088-90-35.904-90-78.736v-14.704h210v14.704zM4704.528-18296.4h240v-40h-240v40zM4836.992-18133.504c2.496 2.096 2.528 4.080 2.528 4.080v8.048h-30.016v-8.048c0 0 0-1.984 2.48-4.080 2.544-2.096 6.272-5.84 6.272-10.4 0-4.064-2.496-7.28-4.848-9.024-3.472-2.592-3.904-6.112-3.904-6.112v-7.36h30.016v7.36c0 0-0.464 3.52-3.936 6.112-2.352 1.744-4.864 4.976-4.864 9.024 0.016 4.56 3.728 8.304 6.272 10.4zM97.968 375.456h170.816v-188.784h-170.816v188.784zM211.952 144.864h153.488v-72.32h-153.488v72.32zM316.816 282.928h97.216v-97.216h-97.216v97.216z" />
<glyph unicode="&#xe60e;" d="M4929.536-18261.696c0 43.072-32.864 78.080-90.080 78.736-0.544 0-14.352 0.032-14.928 0.032-0.912 0-14.096-0.032-15.008-0.032-56.736-1.088-90-35.904-90-78.736v-14.704h210v14.704zM4836.992-18133.504c2.496 2.096 2.528 4.080 2.528 4.080v8.048h-30.016v-8.048c0 0 0-1.984 2.48-4.080 2.544-2.096 6.272-5.84 6.272-10.4 0-4.064-2.496-7.28-4.848-9.024-3.472-2.592-3.904-6.112-3.904-6.112v-7.36h30.016v7.36c0 0-0.464 3.52-3.936 6.112-2.352 1.744-4.864 4.976-4.864 9.024 0.016 4.56 3.728 8.304 6.272 10.4zM320.56 288.736l22.544-19.6-111.056-127.776-52.608 45.728 19.6 22.544 30.064-26.128 91.456 105.232zM256 383.328c-88 0-159.328-71.328-159.328-159.328s71.328-159.328 159.328-159.328 159.328 71.328 159.328 159.328c0 88-71.328 159.328-159.328 159.328zM256 91.984c-72.912 0-132.016 59.104-132.016 132.016s59.104 132.016 132.016 132.016 132.016-59.104 132.016-132.016-59.104-132.016-132.016-132.016z" />
<glyph unicode="&#xe60f;" d="M4929.536-18261.696c0 43.072-32.864 78.080-90.080 78.736-0.544 0-14.352 0.032-14.928 0.032-0.912 0-14.096-0.032-15.008-0.032-56.736-1.088-90-35.904-90-78.736v-14.704h210v14.704zM4704.528-18296.4h240v-40h-240v40zM4836.992-18133.504c2.496 2.096 2.528 4.080 2.528 4.080v8.048h-30.016v-8.048c0 0 0-1.984 2.48-4.080 2.544-2.096 6.272-5.84 6.272-10.4 0-4.064-2.496-7.28-4.848-9.024-3.472-2.592-3.904-6.112-3.904-6.112v-7.36h30.016v7.36c0 0-0.464 3.52-3.936 6.112-2.352 1.744-4.864 4.976-4.864 9.024 0.016 4.56 3.728 8.304 6.272 10.4zM160-32l-61.52 61.52 189.232 195.984-189.232 192.976 61.52 61.52 250.736-254.496z" />
<glyph unicode="&#xe610;" d="M-4417.536-18261.696c0 43.072 32.864 78.080 90.080 78.736 0.544 0 14.352 0.032 14.928 0.032 0.912 0 14.096-0.032 15.008-0.032 56.736-1.088 90-35.904 90-78.736v-14.704h-210v14.704zM-4432.528-18296.4h240v-40h-240v40zM-4324.992-18133.504c-2.496 2.096-2.528 4.080-2.528 4.080v8.048h30.016v-8.048c0 0 0-1.984-2.48-4.080-2.544-2.096-6.272-5.84-6.272-10.4 0-4.064 2.496-7.28 4.848-9.024 3.472-2.592 3.904-6.112 3.904-6.112v-7.36h-30.016v7.36c0 0 0.464 3.52 3.936 6.112 2.352 1.744 4.864 4.976 4.864 9.024-0.016 4.56-3.728 8.304-6.272 10.4zM346.736-32l61.52 61.52-189.232 195.984 189.232 192.976-61.52 61.52-250.736-254.496z" />
<glyph unicode="&#xe611;" d="M140.977 373.224h393.991v-49.248h-393.991v49.249zM140.977 248.132h393.991v-49.248h-393.991v49.249zM140.977 124.025h393.991v-49.248h-393.991v49.248z" horiz-adv-x="676" />
<glyph unicode="&#xe612;" d="M81.104 398.896h87.448v-87.448h-87.448v87.448zM212.276 398.896h87.447v-87.448h-87.447v87.448zM343.447 398.896h87.447v-87.448h-87.447v87.448zM81.104 267.724h87.448v-87.447h-87.448v87.447zM212.276 267.724h87.447v-87.447h-87.447v87.447zM343.447 267.724h87.447v-87.447h-87.447v87.447zM81.104 136.553h87.448v-87.447h-87.448v87.447zM212.276 136.553h87.447v-87.447h-87.447v87.447zM343.447 136.553h87.447v-87.447h-87.447v87.447z" />
</font>
</defs>
</svg>
